<svg xmlns="http://www.w3.org/2000/svg" viewBox="0 0 512 512">
  <path d="M488 272c-7.9 0-15.7-1.3-23-3.8-23.1-7.9-37.9-30.3-37.9-55.6V96c0-4.4-3.6-8-8-8H183.6c-5.2 0-9.6 4-10 9.1l-1.3 12.5c-1.6 15.1-9.7 29-22.1 36.6l-25.1 14.9c-8.1 4.9-13.5 13.3-14.7 22.7-1.2 9.3 1.7 18.8 8.1 25.4l47.7 42.6c14.9 13.2 21.7 33.5 18 52.6l-12.5 74.8c-1.8 11 4.5 21.8 15.3 27.3 10.8 5.5 23.7 4 33.9-3.9l60.6-42.7c15-10.6 35.3-7.8 47.6 6.6l39.8 39.8c5.2 5.2 13.8 5.2 19 0l27.4-27.4c5.2-5.2 5.2-13.8 0-19l-39.8-39.8c-14.4-14.4-17.2-36.6-6.6-52.6l42.7-60.6c7.9-10.2 9.4-23.1 3.9-33.9-5.5-10.8-16.4-17.1-27.4-15.3l-74.8 12.5c-19.1 3.7-39.4-3.1-52.6-18l-42.6-47.7c-6.7-6.4-16.1-9.3-25.4-8.1-9.3 1.2-17.7 6.6-22.7 14.7l-14.9 25.1c-7.6 12.4-21.5 20.5-36.6 22.1l-12.5 1.3c-5.1.4-9.1 4.8-9.1 10v256c0 25.3-14.8 47.7-37.9 55.6-7.3 2.5-15.1 3.8-23 3.8H24c-13.3 0-24-10.7-24-24V264c0-13.3 10.7-24 24-24h8v-8c0-13.3 10.7-24 24-24h400c13.3 0 24 10.7 24 24v8h8c13.3 0 24 10.7 24 24v192c0 13.3-10.7 24-24 24H24c-13.3 0-24-10.7-24-24v-48h8c13.3 0 24-10.7 24-24v-16c0-13.3-10.7-24-24-24H0v-8c0-13.3 10.7-24 24-24h496c13.3 0 24 10.7 24 24v8h8c13.3 0 24 10.7 24 24v16c0 13.3-10.7 24-24 24h-8v48c0 13.3 10.7 24 24 24h-8v8c0 13.3-10.7 24-24 24z"/>
</svg>
